<?xml version="1.0" encoding="iso-8859-1"?><!-- Generator: Adobe Illustrator 22.0.1, SVG Export Plug-In . SVG Version: 6.00 Build 0)  --><svg xmlns="http://www.w3.org/2000/svg" xmlns:xlink="http://www.w3.org/1999/xlink" viewBox="0 0 64 64" width="512px" height="512px"><linearGradient id="SVGID_1__69434" gradientUnits="userSpaceOnUse" x1="25" y1="18" x2="25" y2="26" spreadMethod="reflect"><stop offset="0" style="stop-color:#6DC7FF"/><stop offset="1" style="stop-color:#E6ABFF"/></linearGradient><path style="fill:url(#SVGID_1__69434);" d="M27,18v2c-1.2,0-2,0.5-2,2.2V26h-2v-8h2v1.3C25.4,18.4,26,18,27,18z"/><linearGradient id="SVGID_2__69434" gradientUnits="userSpaceOnUse" x1="17.5" y1="14" x2="17.5" y2="26" spreadMethod="reflect"><stop offset="0" style="stop-color:#6DC7FF"/><stop offset="1" style="stop-color:#E6ABFF"/></linearGradient><path style="fill:url(#SVGID_2__69434);" d="M21.364,20.936C20.945,20.455,20.345,20.1,19.6,20c0.921-0.458,1.4-1.271,1.4-2.8  c0-1.8-1.469-3.2-3.269-3.2H13v12h4.7c2.3,0,4.3-0.6,4.3-3.3C22,22.055,21.773,21.427,21.364,20.936z M15,16h2.356  c1.131,0,1.602,0.6,1.602,1.5c0,1.1-0.754,1.5-1.602,1.5H15V16z M17.716,24H15v-3h2.716c1.164,0,1.94,0.387,1.94,1.548  C19.656,23.613,18.977,24,17.716,24z"/><linearGradient id="SVGID_3__69434" gradientUnits="userSpaceOnUse" x1="40.5" y1="38" x2="40.5" y2="50" spreadMethod="reflect"><stop offset="0" style="stop-color:#6DC7FF"/><stop offset="1" style="stop-color:#E6ABFF"/></linearGradient><path style="fill:url(#SVGID_3__69434);" d="M44.364,44.936C43.945,44.455,43.345,44.1,42.6,44c0.921-0.458,1.4-1.271,1.4-2.8  c0-1.8-1.469-3.2-3.269-3.2H36v12h4.7c2.3,0,4.3-0.6,4.3-3.3C45,46.055,44.773,45.427,44.364,44.936z M38,40h2.356  c1.131,0,1.602,0.6,1.602,1.5c0,1.1-0.754,1.5-1.602,1.5H38V40z M40.716,48H38v-3h2.716c1.164,0,1.94,0.387,1.94,1.548  C42.656,47.613,41.977,48,40.716,48z"/><linearGradient id="SVGID_4__69434" gradientUnits="userSpaceOnUse" x1="32" y1="7" x2="32" y2="57" spreadMethod="reflect"><stop offset="0" style="stop-color:#1A6DFF"/><stop offset="1" style="stop-color:#C822FF"/></linearGradient><path style="fill:url(#SVGID_4__69434);" d="M33,31V7H7v26h24v24h26V31H33z M9,31V9h22v22H9z M55,55H33V33h22V55z"/><linearGradient id="SVGID_5__69434" gradientUnits="userSpaceOnUse" x1="49" y1="42" x2="49" y2="50" spreadMethod="reflect"><stop offset="0" style="stop-color:#6DC7FF"/><stop offset="1" style="stop-color:#E6ABFF"/></linearGradient><path style="fill:url(#SVGID_5__69434);" d="M52,44c0-1.479-1.6-2-3-2c-1.26,0-2.43,0.575-2.653,2h1.568c0.15-0.344,0.47-0.5,1.085-0.5  c0.7,0,1.31,0.313,1.31,0.8v0.2c-0.4,0.2-2.3,0.7-2.3,0.7c-0.9,0.2-2.01,0.9-2.01,2.4s1.11,2.4,2.31,2.4c0.8,0,1.5-0.3,2.1-0.9  c0,0.2-0.01,0.65-0.01,0.9H52C52,49.8,52,44,52,44z M50,47.216c0,0.9-0.664,1.238-1.226,1.238c-0.45,0-1.024-0.338-1.024-0.9  s0.581-0.847,1.046-1.039c0,0,1.092-0.424,1.204-0.311V47.216z"/></svg>